# xmcd
#
# Track frame offsets: 
#        150
#        27725
#        47155
#        62627
#        93340
#        124315
#        158737
#
# Disc length: 3517 seconds
#
# Revision: 0
# Processed by: cddbd v1.5.2PL0 Copyright (c) Steve Scherf et al.
# Submitted via: ExactAudioCopyFreeDBPlugin 1.0
#
DISCID=5c0dbb07
DTITLE=河内家菊水丸 - Happy
DYEAR=1991
DGENRE=音頭
TTITLE0=カーキン音頭 ～ フリーター一代男　青春上京篇
TTITLE1=本当かい？
TTITLE2=花
TTITLE3=ハッピーマン
TTITLE4=カーキン音頭 ～ フリーター一代男　中年望郷篇
TTITLE5=Happy
TTITLE6=祐天吉松　飛鳥山の巻
EXTD=
EXTT0=
EXTT1=
EXTT2=
EXTT3=
EXTT4=
EXTT5=
EXTT6=
PLAYORDER=
